<svg width="28" height="28" viewBox="0 0 28 28" fill="none" xmlns="http://www.w3.org/2000/svg">
<g clip-path="url(#clip0_2725_192)">
<path d="M21.3 3.59961H6.30011C5.8031 3.59961 5.40015 4.00256 5.40015 4.49958V15.2995C5.40015 15.7965 5.8031 16.1995 6.30011 16.1995H21.3C21.797 16.1995 22.2 15.7965 22.2 15.2995V4.49963C22.2 4.00256 21.7971 3.59961 21.3 3.59961ZM11.1001 14.3995H7.20013V5.3996H11.1001V14.3995ZM20.4 14.3995H12.9001V10.7996H20.4V14.3995ZM20.4 8.99957H12.9001V5.3996H20.4V8.99957Z" fill="#64FF6A"/>
<path d="M26.6999 17.9999H25.8V1.79999H26.6998C27.1968 1.79999 27.5998 1.39704 27.5998 0.899967C27.5998 0.40295 27.1968 0 26.6998 0C26.1514 0 1.72764 0 0.899967 0C0.40295 0 0 0.40295 0 0.899967C0 1.39698 0.40295 1.79999 0.899967 1.79999H1.79993V17.9999H0.899967C0.40295 17.9999 0 18.4028 0 18.8998C0 19.3969 0.40295 19.7998 0.899967 19.7998C1.37763 19.7998 12.2482 19.7998 12.8999 19.7998V24.2511L8.11533 25.8459C7.64381 26.0031 7.38894 26.5128 7.54613 26.9844C7.70349 27.4564 8.2135 27.7106 8.68458 27.5536L13.8 25.8485L18.9154 27.5536C19.3868 27.7107 19.8965 27.456 20.0538 26.9844C20.211 26.5129 19.9561 26.0031 19.4846 25.8459L14.7 24.2511V19.7998C15.3525 19.7998 26.2224 19.7998 26.7 19.7998C27.197 19.7998 27.6 19.3969 27.6 18.8998C27.5999 18.4028 27.1969 17.9999 26.6999 17.9999ZM23.9998 17.9999H3.59997V1.79999H23.9998V17.9999Z" fill="#64FF6A"/>
</g>
<defs>
<clipPath id="clip0_2725_192">
<rect width="27.6" height="27.6" fill="white"/>
</clipPath>
</defs>
</svg>
