<svg width="32" height="32" viewBox="0 0 32 32" fill="none" xmlns="http://www.w3.org/2000/svg">
<path fill-rule="evenodd" clip-rule="evenodd" d="M19.9494 17.8801C18.7134 17.9601 17.3961 18.0001 16.0001 18.0001C14.6041 18.0001 13.2867 17.9601 12.0507 17.8801C12.4067 24.4855 14.5627 29.5335 16.0001 29.5335C17.4374 29.5335 19.5921 24.4868 19.9494 17.8801ZM9.36808 17.6295C9.57075 22.3908 10.6494 26.3401 12.1147 28.8855C6.64408 27.2055 2.66675 22.0721 2.66675 16.0001V15.8801C4.43875 16.7081 6.67075 17.2881 9.36808 17.6295ZM2.98941 13.0428C4.49208 13.9255 6.61475 14.5628 9.34808 14.9361C9.48541 9.9228 10.5921 5.76013 12.1134 3.1148C7.56008 4.5148 4.04008 8.3068 2.98941 13.0428ZM12.0094 15.2055C12.1721 8.07613 14.4854 2.4668 16.0001 2.4668C17.5147 2.4668 19.8281 8.07613 19.9907 15.2055C18.7574 15.2908 17.4267 15.3335 16.0001 15.3335C14.6688 15.3364 13.3378 15.2937 12.0094 15.2055ZM22.6321 17.6295C25.3294 17.2881 27.5614 16.7095 29.3334 15.8815V16.0001C29.3334 22.0721 25.3547 27.2055 19.8867 28.8855C21.3507 26.3388 22.4281 22.3908 22.6321 17.6295ZM29.0107 13.0428C27.5081 13.9255 25.3854 14.5628 22.6521 14.9361C22.5147 9.9228 21.4081 5.76013 19.8867 3.1148C24.4401 4.5148 27.9601 8.3068 29.0107 13.0428Z" fill="black"/>
</svg>
