<svg width="32" height="32" viewBox="0 0 32 32" fill="none" xmlns="http://www.w3.org/2000/svg">
<path fill-rule="evenodd" clip-rule="evenodd" d="M19.449 8.77958C19.9315 8.29782 20.5975 7.99993 21.3333 7.99993C22.8061 7.99993 23.9999 9.19383 23.9999 10.6666C23.9999 11.4023 23.7021 12.0684 23.2203 12.5508C22.4319 10.9035 21.0963 9.56793 19.449 8.77958ZM13.6761 8.34269C14.0157 7.22217 14.5945 6.20565 15.3531 5.35254C9.76324 5.6869 5.33325 10.3261 5.33325 15.9999C5.33325 21.8909 10.1089 26.6665 15.9999 26.6665C21.6738 26.6665 26.313 22.2365 26.6473 16.6468C25.7942 17.4053 24.7777 17.9843 23.6571 18.3239C22.6615 21.6088 19.6099 23.9999 15.9999 23.9999C11.5816 23.9999 7.99992 20.4181 7.99992 15.9999C7.99992 12.3899 10.3911 9.33831 13.6761 8.34269Z" fill="#33363F"/>
<path d="M21.3333 16.0002C24.2789 16.0002 26.6667 13.6123 26.6667 10.6668C26.6667 7.72131 24.2789 5.3335 21.3333 5.3335C18.3878 5.3335 16 7.72131 16 10.6668C16 13.6123 18.3878 16.0002 21.3333 16.0002Z" fill="#33363F"/>
</svg>
