<svg width="73" height="73" viewBox="0 0 73 73" fill="none" xmlns="http://www.w3.org/2000/svg">
<path d="M48.6239 6.00684H23.456C12.5238 6.00684 6.00659 12.5241 6.00659 23.4562V48.6241C6.00659 59.5563 12.5238 66.0735 23.456 66.0735H48.6239C59.556 66.0735 66.0733 59.5563 66.0733 48.6241V23.4562C66.0733 12.5241 59.556 6.00684 48.6239 6.00684ZM29.9432 44.7498L23.1857 51.5073C22.7352 51.9578 22.1645 52.1681 21.5939 52.1681C21.0233 52.1681 20.4226 51.9578 20.0021 51.5073L17.7496 49.2548C16.8486 48.3839 16.8486 46.9423 17.7496 46.0713C18.6206 45.2003 20.0322 45.2003 20.9332 46.0713L21.5939 46.732L26.7596 41.5663C27.6306 40.6953 29.0422 40.6953 29.9432 41.5663C30.8141 42.4373 30.8141 43.8789 29.9432 44.7498ZM29.9432 23.7265L23.1857 30.484C22.7352 30.9345 22.1645 31.1447 21.5939 31.1447C21.0233 31.1447 20.4226 30.9345 20.0021 30.484L17.7496 28.2315C16.8486 27.3605 16.8486 25.9189 17.7496 25.048C18.6206 24.177 20.0322 24.177 20.9332 25.048L21.5939 25.7087L26.7596 20.543C27.6306 19.672 29.0422 19.672 29.9432 20.543C30.8141 21.4139 30.8141 22.8555 29.9432 23.7265ZM52.7385 49.9156H36.971C35.7396 49.9156 34.7185 48.8944 34.7185 47.6631C34.7185 46.4317 35.7396 45.4106 36.971 45.4106H52.7385C53.9999 45.4106 54.991 46.4317 54.991 47.6631C54.991 48.8944 53.9999 49.9156 52.7385 49.9156ZM52.7385 28.8922H36.971C35.7396 28.8922 34.7185 27.8711 34.7185 26.6397C34.7185 25.4084 35.7396 24.3872 36.971 24.3872H52.7385C53.9999 24.3872 54.991 25.4084 54.991 26.6397C54.991 27.8711 53.9999 28.8922 52.7385 28.8922Z" fill="#64FF6A"/>
</svg>
