<svg width="24" height="24" viewBox="0 0 24 24" fill="none" xmlns="http://www.w3.org/2000/svg">
<path d="M4.98168 21.9193H18.9303C20.0293 21.9193 20.923 21.0256 20.923 19.9267V4.98168C20.923 3.88272 20.0293 2.98901 18.9303 2.98901H16.9377C16.9377 2.72477 16.8327 2.47134 16.6459 2.28449C16.459 2.09765 16.2056 1.99268 15.9413 1.99268H7.97068C7.70644 1.99268 7.45302 2.09765 7.26617 2.28449C7.07932 2.47134 6.97435 2.72477 6.97435 2.98901H4.98168C3.88272 2.98901 2.98901 3.88272 2.98901 4.98168V19.9267C2.98901 21.0256 3.88272 21.9193 4.98168 21.9193ZM4.98168 4.98168H6.97435V6.97434H16.9377V4.98168H18.9303V19.9267H4.98168V4.98168Z" fill="#64FF6A"/>
<path d="M10.9596 13.5359L9.17322 11.7495L7.7644 13.1583L10.9596 16.3536L16.1476 11.1657L14.7387 9.75684L10.9596 13.5359Z" fill="#64FF6A"/>
</svg>
