<svg width="38" height="38" viewBox="0 0 38 38" fill="none" xmlns="http://www.w3.org/2000/svg">
<g clip-path="url(#clip0_2716_115)">
<path d="M9.55958 22.0861C7.66729 22.0861 6.13597 23.6174 6.13597 25.5097C6.13597 27.402 7.66729 28.9333 9.55958 28.9333C11.4519 28.9333 12.9832 27.402 12.9832 25.5097C12.9832 23.6174 11.452 22.0861 9.55958 22.0861ZM9.55958 26.8211C8.84073 26.8211 8.24823 26.2286 8.24823 25.5097C8.24823 24.7909 8.84073 24.1984 9.55958 24.1984C10.2784 24.1984 10.8709 24.7909 10.8709 25.5097C10.8709 26.2286 10.2784 26.8211 9.55958 26.8211ZM31.1125 22.0885C29.2202 22.0885 27.6889 23.6198 27.6889 25.5121C27.6889 27.4044 29.2202 28.9357 31.1125 28.9357C33.0048 28.9357 34.5361 27.4044 34.5361 25.5121C34.5361 23.6198 33.0048 22.0885 31.1125 22.0885ZM31.1125 26.8234C30.3937 26.8234 29.8012 26.2309 29.8012 25.5121C29.8012 24.7932 30.3937 24.2007 31.1125 24.2007C31.8314 24.2007 32.4239 24.7932 32.4239 25.5121C32.4239 26.2308 31.8314 26.8234 31.1125 26.8234ZM0.296143 23.5645C0.296143 24.2283 0.817394 24.7664 1.48114 24.8023H4.79159C4.92846 24.7664 5.04044 24.6669 5.06532 24.5423C5.43875 22.401 7.30631 20.9159 9.55958 20.9159C11.8129 20.9159 13.6804 22.401 14.0538 24.5423C14.0787 24.6792 14.1907 24.7664 14.3277 24.8023H14.801H19.4043V17.0998H0.296143V23.5645ZM37.3274 22.284H36.5868V19.1734C36.5868 18.0779 35.7691 17.0996 34.6611 17.0996H31.1061C31.0315 17.0996 30.9434 17.0902 30.8936 17.0404L25.3536 11.6479C25.1046 11.3989 24.8016 11.1871 24.4407 11.1746H20.4413V24.8021H26.3663C26.5033 24.8021 26.5935 24.6667 26.6184 24.5422C26.9918 22.4009 28.8594 20.77 31.1127 20.77C33.3659 20.77 35.2335 22.4009 35.6069 24.5422C35.6318 24.6792 35.7093 24.8021 35.8463 24.8021H36.2907C37.0003 24.8021 37.6238 24.1936 37.6238 23.4964V22.5752C37.6236 22.4384 37.4769 22.284 37.3274 22.284ZM28.2918 17.0996H22.2186C22.0692 17.0996 21.9224 16.9528 21.9224 16.8034V12.9521C21.9224 12.8027 22.0692 12.6559 22.2186 12.6559H24.1443C24.2189 12.6559 24.3699 12.7683 24.4322 12.8181L28.4409 16.6545C28.5904 16.8413 28.5283 17.0996 28.2918 17.0996ZM0.296143 15.9146L5.78595 10.4248C7.98976 8.22102 11.5627 8.22102 13.7665 10.4248L19.2561 15.9146H0.296143Z" fill="black"/>
</g>
<defs>
<clipPath id="clip0_2716_115">
<rect width="37.92" height="37.92" fill="white"/>
</clipPath>
</defs>
</svg>
